<svg width="24" height="24" viewBox="0 0 24 24" fill="none" xmlns="http://www.w3.org/2000/svg">
<path d="M4.30384 20.5934C3.96867 20.7633 3.64267 20.7499 3.32584 20.5534C3.009 20.3569 2.85059 20.0641 2.85059 19.6749V5.72495C2.85059 5.47645 2.92209 5.25486 3.06509 5.06019C3.20792 4.86569 3.39534 4.72278 3.62734 4.63145L8.15934 3.03745C8.346 2.96678 8.53459 2.93561 8.72509 2.94395C8.91559 2.95228 9.10417 2.98345 9.29084 3.03745L15.3001 5.14445L19.6963 3.38145C20.0315 3.22828 20.3585 3.24578 20.6773 3.43394C20.9962 3.62211 21.1556 3.91078 21.1556 4.29995V12.8324C21.1556 13.0811 21.0738 13.282 20.9101 13.4352C20.7466 13.5885 20.5425 13.6652 20.2978 13.6652C20.0533 13.6652 19.8503 13.5844 19.6886 13.4227C19.5271 13.2612 19.4463 13.0561 19.4463 12.8074V5.22769L15.9501 6.5597V10.7699C15.9501 10.9866 15.8793 11.1658 15.7376 11.3074C15.5959 11.4491 15.4168 11.5199 15.2001 11.5199C14.9834 11.5199 14.8043 11.4491 14.6626 11.3074C14.5209 11.1658 14.4501 10.9866 14.4501 10.7699V6.5597L9.55009 4.9097V17.6287C9.55009 17.894 9.47859 18.1354 9.33559 18.3529C9.19275 18.5704 8.999 18.7269 8.75434 18.8222L4.30384 20.5934ZM4.55384 18.7412L8.05009 17.4092V4.9097L4.55384 6.06669V18.7412ZM16.4518 18.6342C17.0572 18.6342 17.5676 18.4235 17.9831 18.0022C18.3984 17.5807 18.6041 17.0772 18.6001 16.4917C18.5961 15.8864 18.3884 15.3769 17.9771 14.9634C17.5656 14.5501 17.0572 14.3434 16.4518 14.3434C15.8463 14.3434 15.3378 14.5501 14.9263 14.9634C14.515 15.3769 14.3093 15.8864 14.3093 16.4917C14.3093 17.0972 14.515 17.6056 14.9263 18.0169C15.3378 18.4284 15.8463 18.6342 16.4518 18.6342ZM16.4518 20.3434C15.3905 20.3434 14.4833 19.9668 13.7301 19.2134C12.9768 18.4603 12.6001 17.553 12.6001 16.4917C12.6001 15.4139 12.9768 14.5014 13.7301 13.7544C14.4833 13.0076 15.3905 12.6342 16.4518 12.6342C17.5297 12.6342 18.442 13.0076 19.1888 13.7544C19.9358 14.5014 20.3093 15.4139 20.3093 16.4917C20.3093 16.8672 20.2582 17.2249 20.1558 17.5649C20.0535 17.9049 19.9063 18.2229 19.7143 18.5189L21.6983 20.5092C21.8517 20.6625 21.9293 20.8448 21.9313 21.0559C21.9333 21.2671 21.8557 21.4494 21.6983 21.6027C21.5492 21.7559 21.3689 21.8324 21.1576 21.8324C20.9464 21.8324 20.7623 21.7559 20.6051 21.6027L18.6268 19.6554C18.3102 19.8848 17.9727 20.0568 17.6143 20.1714C17.256 20.2861 16.8685 20.3434 16.4518 20.3434Z" fill="black"/>
</svg>
